<?xml version="1.0" encoding="UTF-8" standalone="no"?><!DOCTYPE svg PUBLIC "-//W3C//DTD SVG 1.1//EN" "http://www.w3.org/Graphics/SVG/1.1/DTD/svg11.dtd"><svg width="100%" height="100%" viewBox="0 0 152 28" version="1.1" xmlns="http://www.w3.org/2000/svg" xmlns:xlink="http://www.w3.org/1999/xlink" xml:space="preserve" style="fill-rule:evenodd;clip-rule:evenodd;stroke-linejoin:round;stroke-miterlimit:1.41421;"><path id="path12" d="M13.1,0c1.3,0 2.5,0.1 3.6,0.4c1.1,0.2 2,0.6 2.8,1.1c0.8,0.5 1.4,1.2 1.8,2.1c0.4,0.9 0.6,2 0.6,3.2c0,1.4 -0.3,2.6 -1,3.5c-0.6,0.9 -1.6,1.7 -2.8,2.3c1.7,0.5 3,1.4 3.8,2.6c0.8,1.2 1.3,2.7 1.3,4.4c0,1.4 -0.3,2.6 -0.8,3.6c-0.5,1 -1.3,1.9 -2.2,2.5c-0.9,0.6 -2,1.1 -3.2,1.4c-1.2,0.3 -2.4,0.5 -3.6,0.5l-13.4,0l0,-27.6l13.1,0Zm-0.8,11.2c1.1,0 2,-0.3 2.7,-0.8c0.7,-0.5 1,-1.4 1,-2.5c0,-0.6 -0.1,-1.2 -0.3,-1.6c-0.2,-0.4 -0.5,-0.7 -0.9,-1c-0.4,-0.2 -0.8,-0.4 -1.3,-0.5c-0.5,-0.1 -1,-0.1 -1.6,-0.1l-5.8,0l0,6.5l6.2,0Zm0.3,11.8c0.6,0 1.2,-0.1 1.7,-0.2c0.5,-0.1 1,-0.3 1.4,-0.6c0.4,-0.3 0.7,-0.6 1,-1.1c0.2,-0.5 0.4,-1.1 0.4,-1.8c0,-1.4 -0.4,-2.4 -1.2,-3.1c-0.8,-0.6 -1.9,-0.9 -3.2,-0.9l-6.6,0l0,7.7l6.5,0Z" style="fill:#fff;fill-rule:nonzero;"/><path id="path14" d="M31.9,22.9c0.8,0.8 2,1.2 3.6,1.2c1.1,0 2.1,-0.3 2.9,-0.8c0.8,-0.6 1.3,-1.2 1.5,-1.8l4.9,0c-0.8,2.4 -2,4.1 -3.6,5.2c-1.6,1 -3.5,1.6 -5.8,1.6c-1.6,0 -3,-0.3 -4.3,-0.8c-1.3,-0.5 -2.3,-1.2 -3.2,-2.2c-0.9,-0.9 -1.6,-2 -2,-3.3c-0.5,-1.3 -0.7,-2.7 -0.7,-4.3c0,-1.5 0.2,-2.9 0.7,-4.2c0.5,-1.3 1.2,-2.4 2.1,-3.4c0.9,-0.9 2,-1.7 3.2,-2.2c1.3,-0.5 2.6,-0.8 4.2,-0.8c1.7,0 3.2,0.3 4.5,1c1.3,0.7 2.3,1.5 3.1,2.7c0.8,1.1 1.4,2.4 1.8,3.8c0.2,1.4 0.3,2.8 0.2,4.4l-14.5,0c0,1.6 0.6,3.1 1.4,3.9Zm6.3,-10.5c-0.7,-0.7 -1.8,-1.1 -3.1,-1.1c-0.9,0 -1.6,0.2 -2.2,0.5c-0.6,0.3 -1,0.7 -1.4,1.1c-0.4,0.4 -0.6,0.9 -0.7,1.4c-0.1,0.5 -0.2,0.9 -0.2,1.3l9,0c-0.2,-1.5 -0.7,-2.5 -1.4,-3.2Z" style="fill:#fff;fill-rule:nonzero;"/><path id="path16" d="M52.8,0l0,10.4l0.1,0c0.7,-1.2 1.6,-2 2.7,-2.5c1.1,-0.5 2.1,-0.8 3.2,-0.8c1.5,0 2.7,0.2 3.6,0.6c0.9,0.4 1.7,1 2.2,1.7c0.5,0.7 0.9,1.6 1.1,2.6c0.2,1 0.3,2.1 0.3,3.4l0,12.3l-5.5,0l0,-11.3c0,-1.7 -0.3,-2.9 -0.8,-3.7c-0.5,-0.8 -1.4,-1.2 -2.7,-1.2c-1.5,0 -2.6,0.5 -3.2,1.3c-0.7,0.9 -1,2.4 -1,4.4l0,10.5l-5.5,0l0,-27.7l5.5,0Z" style="fill:#fff;fill-rule:nonzero;"/><path id="path18" d="M70,10.6c0.6,-0.9 1.3,-1.5 2.2,-2.1c0.9,-0.5 1.9,-0.9 3,-1.1c1.1,-0.2 2.2,-0.3 3.3,-0.3c1,0 2,0.1 3.1,0.2c1,0.1 2,0.4 2.8,0.8c0.9,0.4 1.5,1 2.1,1.7c0.5,0.7 0.8,1.7 0.8,2.9l0,10.5c0,0.9 0.1,1.8 0.2,2.6c0.1,0.8 0.4,1.5 0.7,1.9l-5.6,0c-0.2,-0.2 -0.3,-0.6 -0.4,-0.9c-0.1,-0.3 -0.1,-0.7 -0.1,-1c-0.9,0.9 -1.9,1.5 -3.1,1.9c-1.2,0.4 -2.4,0.5 -3.6,0.5c-1,0 -1.8,-0.1 -2.7,-0.4c-0.8,-0.2 -1.5,-0.6 -2.2,-1.1c-0.6,-0.5 -1.1,-1.1 -1.5,-1.9c-0.3,-0.8 -0.5,-1.6 -0.5,-2.7c0,-1.1 0.2,-2.1 0.6,-2.8c0.4,-0.7 0.9,-1.3 1.5,-1.8c0.6,-0.4 1.4,-0.8 2.2,-1c0.8,-0.2 1.6,-0.4 2.5,-0.5c0.8,-0.1 1.6,-0.2 2.4,-0.3c0.8,-0.1 1.5,-0.2 2.1,-0.3c0.6,-0.2 1.1,-0.4 1.5,-0.7c0.4,-0.3 0.5,-0.7 0.5,-1.3c0,-0.6 -0.1,-1.1 -0.3,-1.4c-0.2,-0.3 -0.5,-0.6 -0.8,-0.8c-0.3,-0.2 -0.7,-0.3 -1.1,-0.4c-0.4,-0.1 -0.9,-0.1 -1.4,-0.1c-1.1,0 -1.9,0.2 -2.5,0.7c-0.6,0.5 -1,1.3 -1.1,2.3l-5.5,0c0,-1.2 0.4,-2.3 0.9,-3.1Zm10.9,7.8c-0.3,0.1 -0.7,0.2 -1.1,0.3c-0.4,0.1 -0.8,0.1 -1.3,0.2c-0.4,0.1 -0.9,0.1 -1.3,0.2c-0.4,0.1 -0.8,0.2 -1.2,0.3c-0.4,0.1 -0.8,0.3 -1,0.5c-0.3,0.2 -0.5,0.5 -0.7,0.8c-0.3,0.4 -0.3,0.8 -0.3,1.3c0,0.5 0.1,0.9 0.3,1.2c0.2,0.3 0.4,0.6 0.7,0.8c0.3,0.2 0.7,0.3 1.1,0.4c0.4,0.1 0.8,0.1 1.3,0.1c1.1,0 1.9,-0.2 2.5,-0.5c0.6,-0.4 1,-0.8 1.3,-1.3c0.3,-0.5 0.5,-1 0.5,-1.5c0.1,-0.5 0.1,-0.9 0.1,-1.2l0,-2.1c-0.3,0.2 -0.6,0.4 -0.9,0.5l0,0Z" style="fill:#fff;fill-rule:nonzero;"/><path id="path20" d="M95.6,7.6l0,2.8l0.1,0c0.7,-1.2 1.6,-2 2.7,-2.5c1.1,-0.5 2.3,-0.8 3.4,-0.8c1.5,0 2.7,0.2 3.6,0.6c1,0.4 1.7,1 2.2,1.7c0.5,0.7 0.9,1.6 1.2,2.6c0.2,1 0.3,2.1 0.3,3.4l0,12.3l-5.5,0l0,-11.3c0,-1.7 -0.3,-2.9 -0.8,-3.7c-0.5,-0.8 -1.4,-1.3 -2.8,-1.3c-1.5,0 -2.6,0.6 -3.3,1.5c-0.7,0.9 -1,2.4 -1,4.4l0,10.5l-5.5,0l0,-20.2l5.4,0Z" style="fill:#fff;fill-rule:nonzero;"/><path id="path22" d="M121.4,11.2c-0.9,0 -1.6,0.2 -2.2,0.6c-0.6,0.4 -1.1,0.9 -1.5,1.6c-0.4,0.6 -0.6,1.3 -0.8,2.1c-0.2,0.8 -0.2,1.5 -0.2,2.3c0,0.7 0.1,1.5 0.2,2.2c0.2,0.8 0.4,1.4 0.8,2c0.4,0.6 0.8,1.1 1.4,1.5c0.6,0.4 1.3,0.6 2.2,0.6c1.3,0 2.3,-0.4 3.1,-1.1c0.7,-0.7 1.2,-1.7 1.3,-3l5.3,0c-0.4,2.7 -1.4,4.7 -3.1,6.1c-1.7,1.4 -3.9,2.1 -6.6,2.1c-1.5,0 -2.9,-0.3 -4.1,-0.8c-1.3,-0.5 -2.3,-1.2 -3.2,-2.1c-0.9,-0.9 -1.6,-2 -2.1,-3.2c-0.5,-1.3 -0.7,-2.6 -0.7,-4.1c0,-1.6 0.2,-3 0.7,-4.3c0.5,-1.3 1.1,-2.5 2,-3.5c0.9,-1 2,-1.7 3.2,-2.3c1.3,-0.5 2.7,-0.8 4.3,-0.8c1.2,0 2.3,0.2 3.4,0.5c1.1,0.3 2.1,0.8 2.9,1.4c0.9,0.6 1.6,1.4 2.1,2.4c0.5,0.9 0.8,2.1 0.9,3.4l-5.4,0c-0.2,-2.4 -1.5,-3.6 -3.9,-3.6l0,0Z" style="fill:#fff;fill-rule:nonzero;"/><rect id="rect24" x="29.4" y="1.9" width="11.2" height="2.7" style="fill:#fff;"/><path id="path26" d="M139.3,22.9c0.8,0.8 2.1,1.2 3.6,1.2c1.1,0 2.1,-0.3 2.9,-0.8c0.8,-0.6 1.3,-1.2 1.5,-1.8l4.8,0c-0.8,2.4 -2,4.1 -3.6,5.2c-1.6,1 -3.5,1.6 -5.8,1.6c-1.6,0 -3,-0.3 -4.3,-0.8c-1.3,-0.5 -2.3,-1.2 -3.2,-2.2c-0.9,-0.9 -1.6,-2 -2,-3.3c-0.5,-1.3 -0.7,-2.7 -0.7,-4.3c0,-1.5 0.2,-2.9 0.7,-4.2c0.5,-1.3 1.2,-2.4 2.1,-3.4c0.9,-0.9 2,-1.7 3.2,-2.2c1.3,-0.5 2.7,-0.8 4.2,-0.8c1.7,0 3.2,0.3 4.4,1c1.3,0.7 2.3,1.5 3.1,2.7c0.8,1.1 1.4,2.4 1.8,3.8c0.4,1.4 0.5,2.9 0.4,4.5l-14.5,0c0,1.5 0.6,3 1.4,3.8Zm6.4,-10.5c-0.7,-0.7 -1.8,-1.1 -3.1,-1.1c-0.9,0 -1.6,0.2 -2.2,0.5c-0.6,0.3 -1.1,0.7 -1.4,1.1c-0.3,0.4 -0.6,0.9 -0.7,1.4c-0.1,0.5 -0.2,0.9 -0.2,1.3l9,0c-0.3,-1.5 -0.8,-2.5 -1.4,-3.2l0,0Z" style="fill:#fff;fill-rule:nonzero;"/></svg>