<?xml version="1.0" encoding="UTF-8" standalone="no"?><!DOCTYPE svg PUBLIC "-//W3C//DTD SVG 1.1//EN" "http://www.w3.org/Graphics/SVG/1.1/DTD/svg11.dtd"><svg width="100%" height="100%" viewBox="0 0 497 124" version="1.1" xmlns="http://www.w3.org/2000/svg" xmlns:xlink="http://www.w3.org/1999/xlink" xml:space="preserve" style="fill-rule:evenodd;clip-rule:evenodd;stroke-linejoin:round;stroke-miterlimit:1.41421;"><g><path d="M190.958,93.591c-1.085,1.707 -1.952,3.172 -2.917,4.568c-3.089,4.468 -6.069,9.021 -9.384,13.314c-1.787,2.312 -4.047,4.314 -6.31,6.199c-7.846,6.537 -17.161,3.139 -21.72,-2.551c-1.211,-1.51 -2.208,-3.188 -3.237,-4.693c-2.243,2.016 -4.402,4.173 -6.787,6.047c-3.834,3.016 -8.11,4.973 -13.167,4.704c-5.672,-0.3 -9.975,-2.91 -13.028,-7.631c-3.004,-4.646 -4.191,-9.884 -4.773,-15.278c-0.685,-6.333 -0.485,-12.67 0.182,-18.999c0.115,-1.088 0.178,-2.19 0.15,-3.284c-0.05,-2.041 -0.875,-3.146 -2.876,-3.517c-2.757,-0.509 -5.55,-0.83 -8.254,-1.224c-1.502,3.897 -2.827,7.724 -4.433,11.426c-4.134,9.527 -9.343,18.447 -15.757,26.63c-1.345,1.716 -2.902,3.307 -4.555,4.731c-5.704,4.928 -12.354,5.502 -18.76,1.504c-2.279,-1.422 -4.25,-3.338 -6.156,-4.863c-2.334,2.631 -4.58,5.621 -7.281,8.118c-7.132,6.596 -15.367,7.532 -23.985,3.456c-10.014,-4.735 -15.615,-12.953 -17.372,-23.814c-1.253,-7.743 -0.366,-15.236 3.187,-22.279c3.032,-6.012 7.352,-10.828 14.161,-12.404c5.168,-1.196 10.418,-0.936 15.524,1.138c-0.328,-3.071 -0.732,-6.086 -0.959,-9.113c-0.964,-12.918 -0.735,-25.745 3.271,-38.238c0.994,-3.099 2.275,-6.069 4.326,-8.648c4.146,-5.212 10.715,-6.218 16.176,-2.365c4.576,3.229 7.07,7.929 8.705,13.109c1.89,5.983 2.19,12.192 2.096,18.405c-0.323,21.197 -4.323,41.658 -12.442,61.281c-0.215,0.521 -0.191,1.344 0.082,1.818c0.874,1.521 1.802,3.042 2.925,4.381c1.269,1.514 2.151,1.529 3.892,0.598c6.233,-3.338 10.819,-8.223 14.37,-14.344c4.27,-7.359 8.149,-14.853 10.732,-22.979c0.283,-0.893 0.244,-1.438 -0.562,-2.157c-4.812,-4.297 -7.265,-9.684 -6.516,-16.167c0.688,-5.951 5.969,-8.873 11.495,-6.486c5.146,2.223 7.818,6.506 9.119,11.748c0.749,3.019 0.673,3.047 3.818,3.506c3.96,0.579 7.957,0.969 11.877,1.746c6.412,1.271 9.299,4.732 9.288,11.269c-0.007,4.093 -0.54,8.182 -0.756,12.274c-0.267,5.056 -0.45,10.119 0.746,15.097c0.287,1.203 0.736,2.362 1.333,3.445c1.357,2.438 3.688,3.266 6.214,2.075c1.439,-0.678 2.864,-1.61 3.955,-2.754c2.267,-2.376 4.33,-4.948 6.408,-7.495c0.308,-0.377 0.366,-1.062 0.335,-1.595c-0.606,-10.479 0.131,-20.881 1.782,-31.225c0.762,-4.77 2.278,-5.578 6.745,-3.771c4.672,1.89 6.565,4.634 6.42,9.692c-0.183,6.293 -0.581,12.582 -0.73,18.875c-0.101,4.287 -0.176,8.613 1.039,12.787c0.432,1.482 1.086,2.981 1.978,4.233c2.079,2.923 5.578,3.274 8.162,0.81c1.436,-1.369 2.753,-2.938 3.812,-4.612c5.623,-8.908 11.154,-17.874 16.688,-26.839c0.303,-0.489 0.476,-1.15 0.47,-1.73c-0.112,-11.177 0.357,-22.324 1.811,-33.412c1.079,-8.235 2.457,-16.429 5.75,-24.118c1.112,-2.597 2.56,-5.155 4.331,-7.344c3.629,-4.484 8.732,-4.862 13.273,-1.268c3.794,3.003 5.492,7.097 5.834,11.818c0.534,7.352 -1,14.428 -3.015,21.415c-3.923,13.609 -9.688,26.462 -16.188,39.011c-0.482,0.961 -0.719,2.026 -0.691,3.101c0.233,6.831 0.772,13.63 3.277,20.086c0.739,1.903 1.532,3.828 2.616,5.544c1.105,1.75 2.428,3.448 3.963,4.826c2.911,2.613 6.127,2.705 9.25,0.341c1.479,-1.124 2.788,-2.455 3.885,-3.954c2.812,-3.854 4.313,-8.26 4.724,-13.003c0.054,-0.614 -0.373,-1.387 -0.801,-1.903c-1.21,-1.465 -2.688,-2.726 -3.79,-4.261c-3.65,-5.086 -6.386,-10.606 -7.375,-16.87c-0.087,-0.565 -0.133,-1.136 -0.137,-1.708c-0.045,-4.687 2.885,-6.96 7.316,-5.345c1.951,0.711 3.879,1.941 5.362,3.4c5.349,5.252 8.623,11.685 9.996,19.062c0.184,0.979 0.146,1.935 1.559,2.103c2.149,0.259 3.096,0.029 3.788,-1.424c0.509,-1.068 0.763,-2.273 1.354,-3.287c1.151,-1.967 2.479,-3.828 3.699,-5.754c1.25,-1.971 2.486,-3.949 3.66,-5.965c0.213,-0.365 0.123,-0.93 0.117,-1.398c-0.14,-11.13 0.366,-22.229 1.812,-33.271c1.041,-7.95 2.369,-15.867 5.476,-23.312c1.18,-2.824 2.71,-5.615 4.613,-7.996c3.585,-4.486 8.778,-4.828 13.271,-1.241c3.78,3.021 5.479,7.111 5.814,11.831c0.526,7.351 -1.009,14.427 -3.023,21.413c-3.943,13.654 -9.705,26.562 -16.283,39.122c-0.301,0.574 -0.662,1.234 -0.643,1.844c0.248,7.209 0.731,14.393 3.322,21.235c1.203,3.18 2.616,6.253 4.934,8.803c0.7,0.781 1.482,1.484 2.334,2.095c2.607,1.846 5.377,2.01 7.993,0.157c1.534,-1.085 2.997,-2.401 4.142,-3.889c3.035,-3.945 4.604,-8.521 5.056,-13.466c0.049,-0.534 -0.121,-1.314 -0.49,-1.627c-4.396,-3.713 -7.103,-8.573 -9.246,-13.756c-1.013,-2.441 -1.529,-5.091 -2.238,-7.656c-0.125,-0.449 -0.121,-0.943 -0.133,-1.42c-0.123,-5.103 3.096,-7.333 7.897,-5.475c2.659,1.029 4.732,2.861 6.509,5.01c4.361,5.28 7.372,11.217 8.371,18.058c0.122,0.832 0.481,1.138 1.196,1.301c2.721,0.624 3.782,-0.045 4.576,-2.758c0.223,-0.761 0.66,-1.472 1.084,-2.151c2.212,-3.562 4.474,-7.099 6.655,-10.68c0.349,-0.57 0.548,-1.331 0.542,-2.001c-0.095,-10.364 0.299,-20.704 1.53,-30.999c1.052,-8.768 2.373,-17.507 5.771,-25.724c1.202,-2.91 2.817,-5.771 4.793,-8.212c3.449,-4.267 8.638,-4.57 12.963,-1.163c3.844,3.027 5.599,7.138 5.944,11.914c0.534,7.352 -1.008,14.428 -3.019,21.415c-3.92,13.611 -9.687,26.461 -16.188,39.008c-0.486,0.96 -0.727,2.026 -0.702,3.102c0.252,6.877 0.846,13.711 3.316,20.229c1.174,3.09 2.572,6.062 4.781,8.566c0.659,0.753 1.393,1.438 2.189,2.044c2.709,2.041 5.576,2.216 8.354,0.271c1.499,-1.051 2.914,-2.354 4.025,-3.806c3.026,-3.95 4.614,-8.516 5.062,-13.462c0.05,-0.54 -0.099,-1.33 -0.465,-1.639c-4.469,-3.781 -7.15,-8.747 -9.385,-14.004c-1.329,-3.129 -2.354,-6.358 -2.242,-9.82c0.086,-2.708 1.374,-4.589 3.516,-4.913c1.104,-0.167 2.3,-0.102 3.396,0.136c2.354,0.511 4.256,1.918 5.896,3.612c5.25,5.417 8.645,11.829 9.865,19.291c0.223,1.356 0.801,1.8 1.98,1.825c1.428,0.029 2.909,0.263 4.271,-0.039c1.272,-0.282 2.521,-1.01 3.567,-1.814c0.477,-0.367 0.75,-1.463 0.601,-2.108c-4.891,-21.181 -3.754,-42.236 1.225,-63.21c1.192,-5.024 2.987,-9.848 5.742,-14.26c0.557,-0.889 1.168,-1.743 1.83,-2.557c5.021,-6.151 12.217,-6.75 18.221,-1.51c4.03,3.519 6.188,8.168 7.704,13.152c2.317,7.611 2.839,15.448 2.723,23.348c-0.124,8.379 -0.885,16.658 -3.834,24.604c-2.896,7.804 -7.613,14.48 -12.761,20.901c-0.864,1.079 -1.79,2.115 -2.595,3.238c-0.247,0.346 -0.398,1.022 -0.229,1.362c1.81,3.565 3.642,7.125 5.587,10.616c0.616,1.107 1.524,2.074 2.409,3.003c1.403,1.477 3.131,2.191 5.229,2.237c5.671,0.123 10.693,-1.493 15.098,-5.11c0.938,-0.771 1.147,-1.455 0.935,-2.646c-2.606,-14.494 1.258,-27.042 11.81,-37.313c5.122,-4.987 11.447,-7.428 18.712,-7.176c11.148,0.388 19.408,10.245 17.771,21.3c-1.425,9.603 -6.847,16.691 -14.323,22.42c-3.977,3.045 -8.447,5.153 -13.56,6.575c0.57,0.438 0.967,0.794 1.411,1.069c5.132,3.158 10.797,3.855 16.655,3.495c10.312,-0.638 17.954,-6.026 24.226,-13.784c1.049,-1.297 1.989,-2.68 3.006,-4.004c1.188,-1.549 2.214,-1.699 3.543,-0.277c2.344,2.504 3.834,5.454 3.946,8.956c0.058,1.772 -0.517,3.373 -1.608,4.784c-10.391,13.417 -24.078,19.468 -40.968,18.277c-7.587,-0.534 -14.584,-2.795 -20.607,-7.594c-1.263,-1.006 -2.392,-2.175 -3.294,-3.005c-4.018,2.19 -7.819,4.574 -11.875,6.397c-5.016,2.255 -10.354,3.357 -15.897,2.314c-6.075,-1.146 -10.8,-4.587 -14.391,-9.418c-2.457,-3.308 -4.36,-7.022 -6.497,-10.565c-0.27,-0.443 -0.444,-0.942 -0.706,-1.513c-4.598,1.356 -9.215,1.305 -13.717,0.395c-0.872,3.064 -1.609,6.06 -2.58,8.975c-1.515,4.557 -3.884,8.631 -7.686,11.67c-6.281,5.023 -13.106,5.186 -20.132,1.815c-5.552,-2.663 -9.551,-7.062 -12.729,-12.228c-2.761,-4.492 -4.916,-9.254 -5.888,-14.483c-0.033,-0.179 -0.138,-0.343 -0.336,-0.82c-3.453,5.751 -8.483,6.695 -14.184,4.992c-0.896,3.146 -1.661,6.13 -2.604,9.058c-1.154,3.574 -2.951,6.824 -5.509,9.604c-5.461,5.938 -12.826,7.651 -20.355,4.751c-5.098,-1.965 -9.038,-5.423 -12.329,-9.688c-4.021,-5.214 -6.119,-9.925 -8.637,-19.406c-3.138,6.344 -8.187,7.502 -14.047,5.697c-1.116,3.645 -2.019,7.141 -3.279,10.504c-0.792,2.115 -1.936,4.159 -3.237,6.016c-5.75,8.189 -15.022,10.476 -23.996,6.02c-4.962,-2.464 -8.712,-6.274 -11.789,-10.803c-3.208,-4.733 -4.553,-7.994 -7.278,-17.677l0,0Zm-166.454,18.449c4.382,0.104 8.274,-1.127 10.953,-4.637c2.267,-2.973 4.064,-6.305 6.012,-9.513c0.19,-0.313 0.055,-0.899 -0.069,-1.319c-1.685,-5.704 -3.39,-11.403 -5.113,-17.096c-0.172,-0.566 -0.409,-1.2 -0.816,-1.6c-4.633,-4.545 -12.725,-5.223 -17.604,0.021c-1.631,1.752 -3.139,3.775 -4.133,5.938c-3.43,7.461 -2.894,15.023 0.146,22.479c1.107,2.715 3.218,4.496 6.103,5.152c1.474,0.337 3.012,0.394 4.521,0.575Zm23.092,-31.327c0.183,-0.009 0.364,-0.019 0.545,-0.026c1.072,-4.539 2.252,-9.055 3.194,-13.62c2.561,-12.407 4.248,-24.916 3.86,-37.626c-0.121,-3.963 -0.493,-7.91 -2.014,-11.636c-0.866,-2.124 -1.902,-2.291 -3.451,-0.591c-1.781,1.957 -2.688,4.366 -3.394,6.856c-1.746,6.161 -2.095,12.498 -2.203,18.845c-0.158,9.223 0.529,18.404 1.711,27.543c0.446,3.436 1.16,6.838 1.752,10.255l0,0Zm341.571,-6.723c2.188,-2.391 3.728,-4.94 5.011,-7.641c5.132,-10.791 6.916,-22.218 6.227,-34.064c-0.229,-3.947 -0.779,-7.879 -2.419,-11.549c-0.524,-1.176 -1.104,-2.589 -2.556,-2.61c-1.458,-0.021 -1.979,1.465 -2.317,2.592c-1.066,3.547 -2.177,7.105 -2.866,10.736c-1.752,9.198 -2.271,18.531 -2.578,27.873c-0.164,4.868 0.365,9.665 1.498,14.663l0,0Zm49.018,18.569l0.552,0.183c0.708,-0.271 1.425,-0.521 2.12,-0.819c6.432,-2.774 11.83,-6.784 14.922,-13.247c0.854,-1.782 1.322,-3.903 1.365,-5.882c0.073,-3.375 -2.736,-5.349 -6.024,-4.565c-2.498,0.596 -4.484,2.04 -6.189,3.896c-3.282,3.572 -5.21,7.839 -6.021,12.566c-0.448,2.586 -0.497,5.242 -0.725,7.868Zm-228.54,-76.165c-4.164,3.379 -9.395,30.516 -8.335,35.37c3.929,-6.006 9.313,-28.695 8.335,-35.37Zm63.665,0.222c-3.708,3.072 -9.424,30.182 -8.377,35.52c4.775,-11.627 7.677,-23.305 8.377,-35.52Zm55.01,35.063c4.737,-11.24 7.76,-22.89 8.688,-35.037l-0.734,-0.175c-4.951,11.183 -7.213,23.013 -7.954,35.212l0,0Z" style="fill:#fff;fill-rule:nonzero;"/><path d="M141.684,39.634c0.004,-5.626 3.923,-9.875 9.57,-10.375c5.129,-0.454 10.107,3.622 11.029,9.034c0.478,2.806 0.179,5.52 -1.085,8.083c-1.818,3.688 -5.527,5.572 -9.593,4.926c-5.867,-0.931 -9.926,-5.705 -9.921,-11.668Z" style="fill:#fff;fill-rule:nonzero;"/></g></svg>