<?xml version="1.0" encoding="UTF-8" standalone="no"?><!DOCTYPE svg PUBLIC "-//W3C//DTD SVG 1.1//EN" "http://www.w3.org/Graphics/SVG/1.1/DTD/svg11.dtd"><svg width="100%" height="100%" viewBox="0 0 111 28" version="1.1" xmlns="http://www.w3.org/2000/svg" xmlns:xlink="http://www.w3.org/1999/xlink" xml:space="preserve" style="fill-rule:evenodd;clip-rule:evenodd;stroke-linejoin:round;stroke-miterlimit:1.41421;"><g id="Logo"><path id="Rounded-Rectangle-2-copy-2" d="M18.063,0l0,28l-4.125,0l0,-28l4.125,0Zm-8.534,6.029c1.137,0 2.059,1.199 2.059,2.677l0,11.586c0,1.479 -0.922,2.677 -2.059,2.677c-1.137,0 -2.058,-1.198 -2.058,-2.677l0,-11.586c0,-1.478 0.921,-2.677 2.058,-2.677Zm12.942,0c1.137,0 2.058,1.199 2.058,2.677l0,11.586c0,1.479 -0.921,2.677 -2.058,2.677c-1.137,0 -2.059,-1.198 -2.059,-2.677l0,-11.586c0,-1.478 0.922,-2.677 2.059,-2.677Zm-19.412,4.28c1.137,0 2.059,1.199 2.059,2.677l0,3.041c0,1.478 -0.922,2.676 -2.059,2.676c-1.137,0 -2.059,-1.198 -2.059,-2.676l0,-3.041c0,-1.478 0.922,-2.677 2.059,-2.677Zm25.882,0c1.137,0 2.059,1.199 2.059,2.677l0,3.041c0,1.478 -0.922,2.676 -2.059,2.676c-1.137,0 -2.059,-1.198 -2.059,-2.676l0,-3.041c0,-1.478 0.922,-2.677 2.059,-2.677Z" style="fill:url(#_Linear1);"/><g id="GLOBAL"><path d="M52.849,19.102c-0.736,0.384 -1.504,0.662 -2.304,0.832c-0.8,0.171 -1.616,0.256 -2.448,0.256c-0.885,0 -1.701,-0.138 -2.448,-0.416c-0.746,-0.277 -1.392,-0.674 -1.936,-1.192c-0.544,-0.517 -0.968,-1.144 -1.272,-1.88c-0.304,-0.736 -0.456,-1.557 -0.456,-2.464c0,-0.906 0.152,-1.728 0.456,-2.464c0.304,-0.736 0.728,-1.362 1.272,-1.88c0.544,-0.517 1.19,-0.914 1.936,-1.192c0.747,-0.277 1.563,-0.416 2.448,-0.416c0.907,0 1.742,0.11 2.504,0.328c0.763,0.219 1.432,0.595 2.008,1.128l-1.76,1.92c-0.341,-0.352 -0.725,-0.618 -1.152,-0.8c-0.426,-0.181 -0.96,-0.272 -1.6,-0.272c-0.533,0 -1.016,0.091 -1.448,0.272c-0.432,0.182 -0.802,0.435 -1.112,0.76c-0.309,0.326 -0.546,0.712 -0.712,1.16c-0.165,0.448 -0.248,0.934 -0.248,1.456c0,0.534 0.083,1.022 0.248,1.464c0.166,0.443 0.403,0.827 0.712,1.152c0.31,0.326 0.68,0.579 1.112,0.76c0.432,0.182 0.915,0.272 1.448,0.272c0.544,0 1.014,-0.061 1.408,-0.184c0.395,-0.122 0.71,-0.248 0.944,-0.376l0,-1.84l-2.032,0l0,-2.304l4.432,0l0,5.92Z" style="fill:#fff;fill-rule:nonzero;"/><path d="M55.937,8.574l2.496,0l0,9.024l4.624,0l0,2.304l-7.12,0l0,-11.328Z" style="fill:#fff;fill-rule:nonzero;"/><path d="M64.625,14.238c0,-0.906 0.152,-1.728 0.456,-2.464c0.304,-0.736 0.728,-1.362 1.272,-1.88c0.544,-0.517 1.19,-0.914 1.936,-1.192c0.747,-0.277 1.563,-0.416 2.448,-0.416c0.886,0 1.702,0.139 2.448,0.416c0.747,0.278 1.392,0.675 1.936,1.192c0.544,0.518 0.968,1.144 1.272,1.88c0.304,0.736 0.456,1.558 0.456,2.464c0,0.907 -0.152,1.728 -0.456,2.464c-0.304,0.736 -0.728,1.363 -1.272,1.88c-0.544,0.518 -1.189,0.915 -1.936,1.192c-0.746,0.278 -1.562,0.416 -2.448,0.416c-0.885,0 -1.701,-0.138 -2.448,-0.416c-0.746,-0.277 -1.392,-0.674 -1.936,-1.192c-0.544,-0.517 -0.968,-1.144 -1.272,-1.88c-0.304,-0.736 -0.456,-1.557 -0.456,-2.464Zm2.592,0c0,0.534 0.083,1.022 0.248,1.464c0.166,0.443 0.403,0.827 0.712,1.152c0.31,0.326 0.68,0.579 1.112,0.76c0.432,0.182 0.915,0.272 1.448,0.272c0.534,0 1.016,-0.09 1.448,-0.272c0.432,-0.181 0.803,-0.434 1.112,-0.76c0.31,-0.325 0.547,-0.709 0.712,-1.152c0.166,-0.442 0.248,-0.93 0.248,-1.464c0,-0.522 -0.082,-1.008 -0.248,-1.456c-0.165,-0.448 -0.402,-0.834 -0.712,-1.16c-0.309,-0.325 -0.68,-0.578 -1.112,-0.76c-0.432,-0.181 -0.914,-0.272 -1.448,-0.272c-0.533,0 -1.016,0.091 -1.448,0.272c-0.432,0.182 -0.802,0.435 -1.112,0.76c-0.309,0.326 -0.546,0.712 -0.712,1.16c-0.165,0.448 -0.248,0.934 -0.248,1.456Z" style="fill:#fff;fill-rule:nonzero;"/><path d="M79.345,8.574l4.224,0c0.491,0 0.984,0.035 1.48,0.104c0.496,0.07 0.942,0.208 1.336,0.416c0.395,0.208 0.715,0.499 0.96,0.872c0.246,0.374 0.368,0.87 0.368,1.488c0,0.64 -0.178,1.171 -0.536,1.592c-0.357,0.422 -0.829,0.723 -1.416,0.904l0,0.032c0.374,0.054 0.712,0.158 1.016,0.312c0.304,0.155 0.566,0.352 0.784,0.592c0.219,0.24 0.387,0.52 0.504,0.84c0.118,0.32 0.176,0.662 0.176,1.024c0,0.598 -0.128,1.096 -0.384,1.496c-0.256,0.4 -0.586,0.723 -0.992,0.968c-0.405,0.246 -0.861,0.422 -1.368,0.528c-0.506,0.107 -1.01,0.16 -1.512,0.16l-4.64,0l0,-11.328Zm2.496,4.528l1.808,0c0.192,0 0.382,-0.021 0.568,-0.064c0.187,-0.042 0.355,-0.112 0.504,-0.208c0.15,-0.096 0.27,-0.224 0.36,-0.384c0.091,-0.16 0.136,-0.352 0.136,-0.576c0,-0.234 -0.05,-0.429 -0.152,-0.584c-0.101,-0.154 -0.232,-0.274 -0.392,-0.36c-0.16,-0.085 -0.341,-0.146 -0.544,-0.184c-0.202,-0.037 -0.4,-0.056 -0.592,-0.056l-1.696,0l0,2.416Zm0,4.688l2.24,0c0.192,0 0.387,-0.021 0.584,-0.064c0.198,-0.042 0.376,-0.117 0.536,-0.224c0.16,-0.106 0.291,-0.245 0.392,-0.416c0.102,-0.17 0.152,-0.378 0.152,-0.624c0,-0.266 -0.066,-0.482 -0.2,-0.648c-0.133,-0.165 -0.301,-0.29 -0.504,-0.376c-0.202,-0.085 -0.421,-0.144 -0.656,-0.176c-0.234,-0.032 -0.453,-0.048 -0.656,-0.048l-1.888,0l0,2.576Z" style="fill:#fff;fill-rule:nonzero;"/><path d="M94.241,8.574l2.064,0l4.928,11.328l-2.816,0l-0.976,-2.4l-4.4,0l-0.944,2.4l-2.752,0l4.896,-11.328Zm0.96,3.296l-1.376,3.52l2.768,0l-1.392,-3.52Z" style="fill:#fff;fill-rule:nonzero;"/><path d="M103.265,8.574l2.496,0l0,9.024l4.624,0l0,2.304l-7.12,0l0,-11.328Z" style="fill:#fff;fill-rule:nonzero;"/></g></g><defs><linearGradient id="_Linear1" x1="0" y1="0" x2="1" y2="0" gradientUnits="userSpaceOnUse" gradientTransform="matrix(1.71451e-15,-28,28,1.71451e-15,16,28)"><stop offset="0%" style="stop-color:#0f33ff;stop-opacity:1"/><stop offset="50%" style="stop-color:#4aaacf;stop-opacity:1"/><stop offset="100%" style="stop-color:#48d2bb;stop-opacity:1"/></linearGradient></defs></svg>